<svg xmlns="http://www.w3.org/2000/svg">
  <symbol id="vk" viewBox="0 0 30 30">
    <path clip-rule="evenodd" d="M16,24c1,0,1-1.441,1-2c0-1,1-2,2-2s2.715,1.715,4,3c1,1,1,1,2,1s3,0,3,0  s2-0.076,2-2c0-0.625-0.685-1.685-3-4c-2-2-3.026-0.967,0-5c1.843-2.456,3.184-4.681,2.954-5.323C29.734,7.064,24.608,6.088,24,7  c-2,3-2.367,3.735-3,5c-1,2-1.099,3-2,3c-0.909,0-1-1.941-1-3c0-3.306,0.479-5.644-1-6c0,0-2,0-3,0c-1.61,0-3,1-3,1  s-1.241,0.968-1,1c0.298,0.04,2-0.414,2,1c0,1,0,2,0,2s0.009,4-1,4c-1,0-3-4-5-7C5.215,6.823,5,7,4,7C2.928,7,2.001,7.042,1,7.042  C0,7.042-0.128,7.679,0,8c2,5,3.437,8.14,7.237,12.096C10.722,23.725,13.05,23.918,15,24C15.5,24.021,15,24,16,24z" fill-rule="evenodd" />
  </symbol>

  <symbol id="twitter" viewBox="0 0 56.693 56.693">
    <path d="M52.837,15.065c-1.811,0.805-3.76,1.348-5.805,1.591c2.088-1.25,3.689-3.23,4.444-5.592c-1.953,1.159-4.115,2-6.418,2.454  c-1.843-1.964-4.47-3.192-7.377-3.192c-5.581,0-10.106,4.525-10.106,10.107c0,0.791,0.089,1.562,0.262,2.303  c-8.4-0.422-15.848-4.445-20.833-10.56c-0.87,1.492-1.368,3.228-1.368,5.082c0,3.506,1.784,6.6,4.496,8.412  c-1.656-0.053-3.215-0.508-4.578-1.265c-0.001,0.042-0.001,0.085-0.001,0.128c0,4.896,3.484,8.98,8.108,9.91  c-0.848,0.23-1.741,0.354-2.663,0.354c-0.652,0-1.285-0.063-1.902-0.182c1.287,4.015,5.019,6.938,9.441,7.019  c-3.459,2.711-7.816,4.327-12.552,4.327c-0.815,0-1.62-0.048-2.411-0.142c4.474,2.869,9.786,4.541,15.493,4.541  c18.591,0,28.756-15.4,28.756-28.756c0-0.438-0.009-0.875-0.028-1.309C49.769,18.873,51.483,17.092,52.837,15.065z"/>
  </symbol>

  <symbol id="facebook" viewBox="0 0 56.693 56.693">
    <path d="M40.43,21.739h-7.645v-5.014c0-1.883,1.248-2.322,2.127-2.322c0.877,0,5.395,0,5.395,0V6.125l-7.43-0.029  c-8.248,0-10.125,6.174-10.125,10.125v5.518h-4.77v8.53h4.77c0,10.947,0,24.137,0,24.137h10.033c0,0,0-13.32,0-24.137h6.77  L40.43,21.739z"/>
  </symbol>

  <symbol id="googleplus" viewBox="0 0 32 32">
    <path d="M16.425,18.415c-0.897-0.634-2.609-2.176-2.609-3.083c0-1.062,0.303-1.586,1.902-2.835   c1.638-1.281,2.799-3.38,2.799-5.476C18.517,4.529,17.405,3,15.321,1h3.144l2.218-1c0,0-7.434,0-9.913,0   C6.325,0,2.144,3.362,2.144,7.261c0,3.986,3.029,7.201,7.551,7.201c0.314,0,0.619-0.008,0.919-0.028   c-0.294,0.56-0.503,1.192-0.503,1.849c0,1.108,0.596,2.006,1.348,2.74c-0.567,0-1.118,0.016-1.717,0.016   C4.235,19.038,0,22.543,0,26.179C0,29.758,4.645,32,10.148,32c6.276,0,9.741-3.562,9.741-7.142   C19.89,21.987,19.042,20.269,16.425,18.415z M11.129,13.448c-2.555-0.076-4.981-2.857-5.422-6.209   c-0.44-3.355,1.272-5.922,3.824-5.846c2.554,0.078,4.981,2.768,5.423,6.122C15.395,10.87,13.681,13.524,11.129,13.448z    M10.128,30.415c-3.805,0-6.553-2.407-6.553-5.301c0-2.834,3.408-5.195,7.214-5.154c0.888,0.01,1.715,0.152,2.465,0.395   c2.066,1.438,3.548,2.25,3.968,3.885c0.076,0.332,0.121,0.675,0.121,1.023C17.343,28.155,15.478,30.415,10.128,30.415z" />
    <polygon points="27,14 27,9 25,9 25,14 20,14 20,16 25,16 25,21 27,21 27,16 32,16 32,14  "/>
  </symbol>

  <symbol id="youtube" viewBox="0 0 32 32">
    <path id='yt-path' d="M31.67,9.179c0,0-0.312-2.353-1.271-3.389c-1.217-1.358-2.58-1.366-3.205-1.443C22.717,4,16.002,4,16.002,4   h-0.015c0,0-6.715,0-11.191,0.347C4.171,4.424,2.809,4.432,1.591,5.79C0.633,6.826,0.32,9.179,0.32,9.179S0,11.94,0,14.701v2.588   c0,2.763,0.32,5.523,0.32,5.523s0.312,2.352,1.271,3.386c1.218,1.358,2.815,1.317,3.527,1.459C7.677,27.919,15.995,28,15.995,28   s6.722-0.012,11.199-0.355c0.625-0.08,1.988-0.088,3.205-1.446c0.958-1.034,1.271-3.386,1.271-3.386s0.32-2.761,0.32-5.523v-2.588   C31.99,11.94,31.67,9.179,31.67,9.179z"/><polygon style="fill: #fff" points="12,10 12,22 22,16  "/>
  </symbol>

  <symbol id="instagram" viewBox="0 0 56.693 56.693">
    <path d="M43.414,4.831H13c-5.283,0-9.581,4.297-9.581,9.58v10.12v20.295c0,5.283,4.298,9.58,9.581,9.58h30.415  c5.283,0,9.58-4.297,9.58-9.58V24.53v-10.12C52.994,9.127,48.697,4.831,43.414,4.831z M46.162,10.544l1.096-0.004v1.091v7.312  l-8.375,0.027l-0.029-8.402L46.162,10.544z M21.131,24.53c1.588-2.197,4.164-3.638,7.076-3.638s5.488,1.441,7.074,3.638  c1.033,1.434,1.652,3.188,1.652,5.088c0,4.811-3.918,8.725-8.727,8.725c-4.812,0-8.726-3.914-8.726-8.725  C19.481,27.718,20.098,25.964,21.131,24.53z M48.164,44.825c0,2.621-2.131,4.75-4.75,4.75H13c-2.62,0-4.751-2.129-4.751-4.75V24.53  h7.4c-0.639,1.572-0.998,3.289-0.998,5.088c0,7.473,6.08,13.557,13.556,13.557c7.475,0,13.555-6.084,13.555-13.557  c0-1.799-0.361-3.516-1-5.088h7.402V44.825z"/>
  </symbol>

  <symbol id="ok" viewBox="0 0 30 30">
    <path d="M22,15c-1,0-3,2-7,2s-6-2-7-2c-1.104,0-2,0.896-2,2c0,1,0.568,1.481,1,1.734C8.185,19.427,12,21,12,21l-4.25,5.438  c0,0-0.75,0.935-0.75,1.562c0,1.104,0.896,2,2,2c1.021,0,1.484-0.656,1.484-0.656S14.993,23.993,15,24  c0.007-0.007,4.516,5.344,4.516,5.344S19.979,30,21,30c1.104,0,2-0.896,2-2c0-0.627-0.75-1.562-0.75-1.562L18,21  c0,0,3.815-1.573,5-2.266C23.432,18.481,24,18,24,17C24,15.896,23.104,15,22,15z" id="K"/><path d="M15,0c-3.866,0-7,3.134-7,7s3.134,7,7,7c3.865,0,7-3.134,7-7S18.865,0,15,0z M15,10.5c-1.933,0-3.5-1.566-3.5-3.5  c0-1.933,1.567-3.5,3.5-3.5c1.932,0,3.5,1.567,3.5,3.5C18.5,8.934,16.932,10.5,15,10.5z" id="O"/>
  </symbol>

  <symbol id="eye" viewBox="0 0 512 512">
    <path d="M256,128c-81.9,0-145.7,48.8-224,128c67.4,67.7,124,128,224,128c99.9,0,173.4-76.4,224-126.6   C428.2,198.6,354.8,128,256,128z M256,347.3c-49.4,0-89.6-41-89.6-91.3c0-50.4,40.2-91.3,89.6-91.3s89.6,41,89.6,91.3   C345.6,306.4,305.4,347.3,256,347.3z"/>
    <path d="M256,224c0-7.9,2.9-15.1,7.6-20.7c-2.5-0.4-5-0.6-7.6-0.6c-28.8,0-52.3,23.9-52.3,53.3c0,29.4,23.5,53.3,52.3,53.3    s52.3-23.9,52.3-53.3c0-2.3-0.2-4.6-0.4-6.9c-5.5,4.3-12.3,6.9-19.8,6.9C270.3,256,256,241.7,256,224z"/>
  </symbol>

  <symbol id="comment" viewBox="0 0 24 24">
    <path clip-rule="evenodd" d="M10.718,18.561l6.78,5.311C17.609,23.957,17.677,24,17.743,24  c0.188,0,0.244-0.127,0.244-0.338v-5.023c0-0.355,0.233-0.637,0.548-0.637L21,18c2.219,0,3-1.094,3-2s0-13,0-14s-0.748-2-3.014-2  H2.989C0.802,0,0,0.969,0,2s0,13.031,0,14s0.828,2,3,2h6C9,18,10.255,18.035,10.718,18.561z" fill-rule="evenodd"/>
  </symbol>
</svg>