<?xml version="1.0" encoding="utf-8"?>
<!-- Generator: Adobe Illustrator 17.0.0, SVG Export Plug-In . SVG Version: 6.00 Build 0)  -->
<!DOCTYPE svg PUBLIC "-//W3C//DTD SVG 1.1//EN" "http://www.w3.org/Graphics/SVG/1.1/DTD/svg11.dtd">
<svg version="1.1" id="Слой_1" xmlns="http://www.w3.org/2000/svg" xmlns:xlink="http://www.w3.org/1999/xlink" x="0px" y="0px"
	 width="323.682px" height="111.001px" viewBox="0 0 323.682 111.001" enable-background="new 0 0 323.682 111.001"
	 xml:space="preserve">
<path fill-rule="evenodd" clip-rule="evenodd" fill="#2196F3" d="M32.032,55.5c0,25.138,16.867,46.359,39.994,53.187
	c-5.075,1.497-10.445,2.314-16.009,2.314C25.08,111.001,0,86.153,0,55.5S25.08,0,56.016,0c5.565,0,10.935,0.817,16.009,2.314
	C48.899,9.141,32.032,30.363,32.032,55.5L32.032,55.5z"/>
<path fill-rule="evenodd" clip-rule="evenodd" fill="#FFC107" d="M78.013,89.006c-3.074,0-6.047-0.416-8.879-1.179
	c13.351-4.933,22.87-17.772,22.87-32.834c0-15.049-9.499-27.874-22.83-32.819c2.819-0.757,5.78-1.167,8.839-1.167
	c18.787,0,34.018,15.222,34.018,33.999C112.031,73.784,96.8,89.006,78.013,89.006L78.013,89.006z"/>
<g>
	<g>
		<path fill="#252525" d="M172.862,42.622v-9.557h-30.535v9.557h17.657L140.06,68.378v9.557h34.179v-9.557h-21.301L172.862,42.622z M181.693,27.881
			h10.772v-9.8h-10.772V27.881z M181.693,77.936h10.772v-44.87h-10.772V77.936z M227.212,31.607c-6.075,0-11.096,2.349-14.579,7.29
			v-5.832h-9.881v59.854h10.772V73.076c3.645,4.455,8.018,6.318,13.688,6.318c13.121,0,22.516-11.177,22.516-23.893
			c0-6.318-2.106-12.311-6.237-16.604C238.875,33.713,233.772,31.607,227.212,31.607z M225.673,68.864
			c-2.997,0-6.318-1.377-8.585-3.402c-2.916-2.592-4.212-6.075-4.212-9.962c0-7.451,5.67-13.364,13.202-13.364
			c7.289,0,12.878,6.155,12.878,13.283C238.956,62.952,233.286,68.864,225.673,68.864z M293.387,39.383
			c-3.564-5.022-8.909-7.775-15.065-7.775c-6.56,0-12.149,2.511-16.685,7.775c-4.131,4.698-5.751,9.881-5.751,16.118
			c0,6.237,2.025,12.068,5.589,16.361c3.888,4.617,9.557,7.532,16.523,7.532c5.669,0,11.987-2.916,15.389-7.532v6.075h9.881v-44.87
			h-9.881C293.387,39.383,293.387,39.383,293.387,39.383z M279.942,68.864c-7.289,0.081-13.283-5.589-13.283-12.959
			c0-7.856,5.508-13.85,13.445-13.769c7.613-0.081,12.959,5.75,12.959,13.283C293.063,63.114,287.717,68.945,279.942,68.864z
			 M312.91,18.081v59.854h10.772V18.081H312.91z"/>
	</g>
</g>
</svg>
